<svg version="1.1" id="Layer_1" xmlns="http://www.w3.org/2000/svg" xmlns:xlink="http://www.w3.org/1999/xlink" x="0px" y="0px"
	 width="100%" viewBox="0 0 1024 1024" enable-background="new 0 0 1024 1024" xml:space="preserve">
<path fill="#000000" opacity="1.000000" stroke="none" 
	d="
M720.740356,567.978882 
	C731.292175,570.588623 740.195007,575.992126 748.927307,581.280823 
	C757.047119,586.198730 760.982422,594.812744 761.134705,604.195251 
	C761.537598,629.015503 761.629700,653.850708 761.206665,678.669067 
	C761.059143,687.321533 757.655212,695.188110 749.761108,700.204712 
	C749.094910,700.628113 748.562195,701.261414 747.602783,702.125610 
	C753.466919,708.734375 759.985657,714.312988 766.384460,720.010925 
	C767.249207,720.780884 768.197876,721.456848 769.109680,722.173706 
	C770.863159,723.552246 772.640625,725.077515 771.671265,727.564514 
	C770.804626,729.788147 768.677063,729.399963 766.649414,729.720276 
	C759.672791,730.822632 752.671265,729.827515 745.734070,730.417725 
	C738.389160,731.042603 732.469421,728.889771 727.405518,723.526306 
	C723.871094,719.782837 719.561584,716.753906 716.156799,712.910950 
	C713.504211,709.916992 710.583801,708.793396 706.914856,709.395813 
	C702.491577,710.122009 698.047363,710.300598 693.600281,710.211609 
	C676.823853,709.876099 659.908691,712.290527 643.309631,708.479736 
	C632.985779,706.109558 623.270996,702.335754 617.187561,692.596069 
	C615.730896,690.263916 613.203796,688.619019 611.271057,686.562256 
	C605.136841,680.034180 603.901306,671.664307 603.758240,663.386780 
	C603.389771,642.069580 603.366333,620.736145 603.773132,599.420044 
	C603.973816,588.904968 607.336792,579.231323 617.198608,573.650208 
	C625.183472,569.131287 633.893677,565.926453 643.139221,565.783508 
	C663.627991,565.466675 684.125366,565.740479 704.618774,565.667664 
	C709.992737,565.648560 715.178955,566.589417 720.740356,567.978882 
M719.612915,618.501099 
	C719.619324,614.501099 719.633118,610.501160 719.630676,606.501160 
	C719.624939,597.159180 718.708557,596.308411 709.384766,596.324219 
	C701.395752,596.337708 693.396057,595.922729 685.420349,596.218506 
	C677.302307,596.519531 669.150696,595.737366 661.052368,597.327209 
	C654.534668,598.606812 649.467590,602.797791 649.430115,608.470703 
	C649.291260,629.468994 649.308655,650.469055 649.431030,671.467529 
	C649.449341,674.617676 650.221191,678.865112 653.657349,679.174988 
	C661.447815,679.877502 669.344971,679.396179 677.198792,679.396179 
	C677.364502,678.970947 677.530212,678.545776 677.695984,678.120544 
	C670.438843,672.662903 665.178223,665.492310 658.362610,657.678772 
	C667.084656,657.678772 674.344910,657.665161 681.605042,657.683167 
	C687.355225,657.697388 693.395020,656.616089 697.554932,662.347656 
	C698.122864,663.129944 699.622498,663.471069 700.733582,663.580200 
	C704.126770,663.913269 706.547913,665.868347 708.919922,668.015869 
	C710.992371,669.892090 713.114319,671.713562 715.152527,673.504883 
	C718.797302,671.698792 719.667847,668.946106 719.650574,665.499329 
	C719.573669,650.166748 719.613220,634.833679 719.612915,618.501099 
M675.497375,696.010864 
	C681.301086,696.064148 687.391174,697.261169 692.839905,695.896790 
	C700.607117,693.951965 705.535645,697.190002 710.336792,702.073608 
	C714.326965,706.132385 718.503479,709.881836 723.891541,712.021851 
	C724.985779,709.886292 722.622375,708.419556 723.939880,706.788513 
	C730.823486,705.098633 736.466431,709.304749 735.845642,716.017273 
	C738.454895,715.939819 741.059692,716.626953 743.531738,715.463135 
	C744.707458,710.934326 743.788513,707.821350 739.780701,705.046631 
	C736.014160,702.439026 733.073792,698.628235 729.810059,695.307434 
	C727.398315,692.853638 728.001221,690.408813 730.911377,689.414734 
	C738.592529,686.790833 739.810791,679.372314 743.215759,673.601624 
	C744.053528,672.181702 743.126404,670.421326 741.514404,670.001770 
	C736.498047,668.696045 731.435181,670.700928 726.268250,669.920837 
	C723.761230,669.542358 722.316772,673.000732 720.730164,675.148804 
	C717.651367,679.317017 713.113159,680.511536 710.032410,677.529419 
	C706.822815,674.422729 702.763245,672.928772 699.215515,670.516724 
	C697.028748,669.029968 694.488586,668.199280 692.293640,670.090820 
	C689.999878,672.067444 691.280457,674.304626 692.726807,676.292175 
	C694.549561,678.796814 692.946106,680.706970 691.536194,682.550659 
	C690.091858,684.439270 687.871582,685.534058 685.813293,684.383911 
	C678.716858,680.418701 671.179504,683.024963 663.868103,682.541748 
	C661.667480,682.396301 659.113098,684.170593 660.090088,685.997375 
	C661.988525,689.547729 660.454346,692.166626 658.775208,695.409241 
	C664.310364,696.606262 669.427917,695.960571 675.497375,696.010864 
M711.383240,587.887329 
	C706.379700,586.716187 701.452148,585.268555 696.209229,585.314026 
	C684.044739,585.419495 671.878601,585.378967 659.713379,585.328064 
	C654.481140,585.306152 649.453125,586.301880 644.648682,588.259277 
	C639.603088,590.314941 636.440430,594.111816 636.409119,599.654968 
	C636.286682,621.319519 636.244751,642.986145 636.430725,664.649841 
	C636.489014,671.440125 640.787598,676.165955 646.854431,677.216492 
	C648.298218,675.662720 647.564636,673.730164 647.570190,671.995117 
	C647.639099,650.496887 647.697937,628.998047 647.588074,607.500305 
	C647.565125,603.028015 649.213989,599.934875 652.957947,597.584778 
	C656.191589,595.555115 659.666992,594.718384 663.364380,594.708130 
	C678.850952,594.665161 694.337646,594.691345 709.824341,594.702576 
	C712.250916,594.704346 714.718384,594.934875 716.883240,593.385742 
	C715.899841,590.752441 714.268860,589.205994 711.383240,587.887329 
M747.373657,620.499756 
	C747.363342,636.973083 747.377258,653.446411 747.333313,669.919678 
	C747.308289,679.316162 743.326965,686.471558 735.015991,691.052795 
	C733.985474,691.620850 732.872009,692.009827 732.573608,693.685486 
	C736.561401,699.106934 742.657104,702.456055 747.468872,707.263428 
	C747.008911,704.246399 740.302490,702.152588 746.673828,698.647644 
	C755.590393,693.742676 758.578979,685.684692 758.614258,676.177307 
	C758.701172,652.714966 758.601624,629.252014 758.697632,605.789734 
	C758.713745,601.855042 757.947021,598.088257 756.337402,594.679260 
	C754.132751,590.009827 751.570129,585.338806 745.183716,583.175049 
	C748.953369,595.696533 746.735901,607.660034 747.373657,620.499756 
M629.134277,696.722595 
	C628.034302,696.612915 626.753113,696.069458 626.346130,698.119507 
	C635.978149,705.202820 647.318115,707.670227 658.819336,708.399292 
	C675.893616,709.481750 692.988770,708.344727 711.178406,707.033569 
	C705.544250,701.443481 701.074463,696.501160 693.394226,698.491638 
	C686.733398,700.217834 679.826538,699.823914 673.127197,700.067505 
	C658.639343,700.594299 643.973938,701.252625 629.134277,696.722595 
M620.747375,672.464417 
	C625.657104,670.493347 629.429932,676.428589 635.151611,674.541748 
	C630.375244,664.328796 635.723267,652.867615 630.323669,642.173767 
	C626.516602,646.190186 626.372375,650.414612 625.535645,654.425537 
	C625.155396,656.247986 625.402405,658.715149 622.831970,659.263062 
	C616.376221,660.639221 611.867615,658.313416 607.753601,651.997803 
	C608.738770,659.097900 603.899902,667.158142 611.537720,673.302124 
	C614.032776,670.921631 611.894714,667.169861 614.366821,665.010742 
	C618.385498,665.952271 617.932190,670.102356 620.747375,672.464417 
M755.759338,719.499512 
	C747.056396,719.581726 738.326416,718.903748 728.653320,719.802490 
	C732.637268,725.072632 736.314758,728.454407 742.366638,727.920715 
	C748.013367,727.422729 753.662170,727.618774 759.321045,727.886475 
	C762.211060,728.023193 765.239319,728.538452 768.152039,727.142029 
	C763.166809,722.001526 758.381592,717.067322 753.596313,712.133057 
	C754.197449,714.101074 755.656738,715.204041 757.027466,716.407837 
	C758.374023,717.590637 758.345703,718.649170 755.759338,719.499512 
M625.996399,592.790710 
	C622.019897,592.892273 619.721680,595.375488 621.813354,597.305115 
	C624.840637,600.097839 627.486389,603.296814 630.350830,606.464111 
	C634.852783,599.245544 633.556885,595.173035 625.996399,592.790710 
z"/>
<path fill="#000000" opacity="1.000000" stroke="none" 
	d="
M471.071472,633.926514 
	C470.560791,633.239685 470.337219,632.726990 469.945984,632.460266 
	C454.932648,622.224792 458.307617,606.811462 459.203827,592.485718 
	C460.265778,575.511536 473.902405,570.624207 486.916870,566.791077 
	C490.894409,565.619568 495.100281,565.630737 499.280121,565.639709 
	C526.606140,565.698364 553.932373,565.654236 581.258545,565.646057 
	C584.535889,565.645081 588.054871,564.894043 588.623474,569.968140 
	C588.848694,571.977478 591.226501,571.577087 592.855591,571.642029 
	C601.369385,571.981445 601.396362,571.977966 601.421753,580.536560 
	C601.433105,584.365234 601.429871,588.200928 601.213989,592.021057 
	C601.044495,595.021057 599.875854,596.599060 596.199890,596.569153 
	C569.542297,596.351624 542.882263,596.376343 516.223328,596.441101 
	C513.095520,596.448730 509.942993,597.024292 506.850342,597.597717 
	C504.074921,598.112244 502.465240,600.011230 502.385529,602.857849 
	C502.245941,607.844177 502.340637,612.837280 502.193695,617.823303 
	C502.085632,621.491150 503.722473,622.719421 507.329742,622.680237 
	C519.490906,622.548096 531.655273,622.613586 543.817566,622.709167 
	C555.156189,622.798279 565.823547,625.417847 575.607666,631.353577 
	C580.004456,634.021057 584.972900,635.582581 589.236328,638.599365 
	C596.536072,643.764771 600.765381,650.317017 600.374634,659.560913 
	C600.128479,665.382446 600.047180,671.232971 600.324707,677.049805 
	C600.867493,688.424805 594.902283,695.897095 585.881714,701.362000 
	C575.262146,707.795532 563.535583,710.363708 551.160950,710.325928 
	C525.170959,710.246643 499.180359,710.177734 473.190674,710.279175 
	C468.537811,710.297363 466.185059,708.843994 466.787170,703.930969 
	C467.154388,700.934326 466.223907,699.105896 462.746704,699.288330 
	C459.800964,699.442932 458.618317,697.763428 458.685547,694.895874 
	C458.771423,691.232300 458.909546,687.549683 458.641022,683.903625 
	C458.354156,680.008240 459.770691,678.640991 463.723785,678.676270 
	C480.216034,678.823669 496.710571,678.703796 513.204285,678.700562 
	C522.367432,678.698792 531.531250,678.804260 540.693420,678.717529 
	C544.326843,678.683105 547.987488,678.379822 551.058716,676.010742 
	C555.983765,672.211914 558.893982,660.526489 556.344116,654.739990 
	C555.253540,652.265137 553.001282,652.272034 550.822815,652.267090 
	C539.497925,652.241394 528.172424,652.319580 516.848267,652.227539 
	C504.561401,652.127747 492.895630,649.171997 481.875214,643.846069 
	C477.479919,641.721741 474.027252,638.290405 471.071472,633.926514 
M581.261230,684.734436 
	C577.308167,688.290833 573.049988,691.340576 568.189514,693.621704 
	C559.748413,697.583374 550.791016,699.208069 541.626160,699.289246 
	C519.319519,699.487061 497.009613,699.392639 474.701660,699.282654 
	C471.019653,699.264526 469.030487,700.129700 469.359283,704.311829 
	C469.668793,708.247864 472.405151,707.617859 474.798279,707.620544 
	C501.598816,707.650635 528.403259,707.908325 555.198120,707.517029 
	C566.817505,707.347412 577.872131,703.936218 587.369812,696.942505 
	C593.936096,692.107361 597.929504,685.631531 597.681580,677.021790 
	C597.499512,670.701660 597.708801,664.371216 597.620300,658.047119 
	C597.502258,649.610413 593.260986,643.881287 584.848633,639.589783 
	C588.803528,649.293701 587.053894,658.468262 587.260864,667.506836 
	C587.400146,673.590454 585.832153,679.358276 581.261230,684.734436 
M514.513184,585.330627 
	C507.875702,585.330688 501.201416,584.870422 494.814331,587.395386 
	C491.126099,588.853455 488.494781,591.168579 488.380066,595.353210 
	C488.243286,600.343750 488.176758,605.349609 488.408661,610.333496 
	C488.680603,616.177917 492.952423,620.347534 499.102264,620.921570 
	C500.969879,616.454163 499.380951,611.777649 499.568176,607.222473 
	C499.990387,596.949524 502.052612,594.722046 512.392456,594.687988 
	C536.366394,594.609009 560.340698,594.619507 584.314819,594.608093 
	C598.825745,594.601196 598.780823,594.613525 598.679810,579.896423 
	C598.654785,576.248840 598.486572,573.420044 593.551941,573.269104 
	C588.581238,573.117065 587.950806,575.789612 588.377136,579.529663 
	C588.902527,584.139404 586.993164,585.499207 582.435913,585.455872 
	C560.128418,585.243774 537.818054,585.342407 514.513184,585.330627 
M484.624573,612.675903 
	C484.767700,610.859497 484.906372,609.042725 485.054779,607.226746 
	C485.612427,600.404236 483.731873,593.322754 487.870728,586.866455 
	C489.095428,584.955994 486.995270,583.626770 485.034241,583.182556 
	C482.447021,582.596619 479.830017,582.141235 477.245880,581.542908 
	C469.535645,579.757935 464.951172,583.116272 463.477234,590.732117 
	C462.074829,597.978271 463.385437,605.201416 462.746368,612.380615 
	C462.429932,615.935913 463.567749,618.589905 465.429047,621.699707 
	C468.376495,619.110413 471.841949,618.538269 474.959686,617.196594 
	C478.054749,615.864563 482.250458,617.187500 484.624573,612.675903 
M562.734497,646.708862 
	C561.164124,647.399719 560.023987,648.012695 560.308350,650.331909 
	C560.709717,653.605530 560.332764,656.973267 560.307373,660.300842 
	C560.183655,676.510498 560.455322,676.636475 576.166931,679.386597 
	C580.483887,680.142212 582.130676,678.241821 582.830383,674.800781 
	C583.655029,670.745178 584.358826,666.620361 584.576050,662.497070 
	C584.848938,657.317322 585.533508,651.901855 581.662598,647.463379 
	C575.544189,650.625671 575.520813,650.670959 569.149353,647.384277 
	C567.279968,646.420105 565.452881,645.932800 562.734497,646.708862 
M511.326355,649.275513 
	C526.235962,650.341003 541.156860,648.753967 556.799561,650.380432 
	C554.269043,645.599792 551.033936,643.549927 547.101929,642.384827 
	C542.726990,641.088440 538.224670,641.451599 533.752319,641.306152 
	C521.650452,640.912659 509.556244,641.725464 497.420563,640.571716 
	C490.380554,639.902466 483.901794,637.236145 476.855164,636.667236 
	C481.607208,640.245117 486.261993,643.808228 492.070465,645.564026 
	C498.109161,647.389587 504.265717,648.414917 511.326355,649.275513 
M474.532196,682.938782 
	C471.940704,683.062256 469.349213,683.185669 466.325134,683.329773 
	C470.820770,690.548950 474.230225,681.419312 478.088104,683.618896 
	C477.189392,682.321411 476.198456,682.726074 474.532196,682.938782 
M518.234497,636.830688 
	C517.912659,636.912292 517.535522,636.914062 517.279663,637.091064 
	C516.593323,637.565613 517.057983,637.934937 517.528442,638.039612 
	C520.083984,638.608154 522.668701,639.299316 525.177551,637.440918 
	C523.080566,636.068237 520.980591,636.184692 518.234497,636.830688 
z"/>
<path fill="#000000" opacity="1.000000" stroke="none" 
	d="
M877.658325,538.431519 
	C889.008789,534.708557 900.339600,533.411255 912.018005,532.926453 
	C902.193115,525.962036 893.371826,517.720764 881.724976,513.842712 
	C874.786377,511.532379 868.044312,508.572968 861.018311,506.602814 
	C855.810669,505.142548 852.693848,501.549377 849.079773,498.076141 
	C837.357788,486.811188 831.952759,471.987732 825.321899,457.752747 
	C818.525208,443.161621 812.763672,428.055359 805.529358,413.751465 
	C794.118896,391.190552 778.962097,371.334686 757.758972,356.555237 
	C744.720032,347.466614 731.432556,339.126434 716.114319,334.525146 
	C709.050415,332.403290 701.641968,332.887634 694.393005,332.365326 
	C690.500427,332.084869 687.307434,331.127441 684.447266,328.569733 
	C675.208130,320.307526 663.907837,315.793854 652.645752,311.228180 
	C650.222900,310.245941 647.926758,309.896851 645.705383,311.984711 
	C643.160278,314.376862 644.785217,316.863770 645.724976,318.860168 
	C648.574219,324.913147 652.904297,330.016022 657.131653,335.171082 
	C667.798279,348.178406 673.379883,363.565277 677.858948,379.504700 
	C681.037598,390.816254 685.841309,401.370911 694.373962,409.774353 
	C700.262756,415.574066 699.489746,422.214233 697.310425,429.147675 
	C695.123291,436.106201 692.223938,442.930969 690.891296,450.049225 
	C688.149353,464.695251 688.569580,479.339935 693.928223,493.796661 
	C696.605164,480.239410 699.083435,466.701538 711.006958,457.470886 
	C714.285767,459.642456 713.188904,464.266968 716.069580,466.816498 
	C716.191956,466.804749 716.651245,466.899414 716.800903,466.726379 
	C722.656006,459.955292 724.351135,462.672821 726.859924,469.224792 
	C735.950500,492.965881 747.866638,515.051575 763.457153,535.172119 
	C767.119446,539.898560 770.632751,544.656189 775.433167,548.329651 
	C776.437134,549.097961 777.063599,550.385254 777.791321,551.481689 
	C778.553772,552.630493 779.087280,553.861755 778.075745,555.155884 
	C776.963440,556.579041 775.438843,556.519592 773.985718,555.999451 
	C772.268188,555.384766 770.705017,554.492493 769.337280,553.176270 
	C759.289368,543.507568 747.888489,535.310059 738.561768,524.851868 
	C734.689209,520.509583 730.752686,516.224609 726.858582,511.901489 
	C725.782593,510.706940 725.149414,508.995667 722.818604,508.780762 
	C722.123108,511.757538 721.467957,514.771667 720.711731,517.760254 
	C718.126465,527.976074 706.830505,532.820801 697.503296,527.729248 
	C696.773865,527.331055 695.979553,526.959412 695.403625,526.386292 
	C685.667847,516.697876 675.334229,507.614349 670.879639,493.767700 
	C664.114014,472.737152 663.594055,451.731812 669.428406,430.499176 
	C670.787415,425.553528 671.132568,420.353790 673.393494,415.623749 
	C674.435181,413.444550 673.561707,411.539185 671.945129,409.741821 
	C661.434021,398.055023 656.268494,383.568451 651.794006,368.990784 
	C647.287170,354.307526 640.946106,341.020355 630.376648,329.663605 
	C625.184753,324.084961 621.092590,317.377686 619.996643,309.547546 
	C618.080566,295.857605 627.047485,285.739075 641.806763,287.386810 
	C658.399841,289.239288 671.965271,298.164246 685.820618,306.177643 
	C690.390930,308.820984 695.064270,309.046539 699.630920,309.446289 
	C716.030518,310.881927 730.369324,317.770111 744.158630,325.778168 
	C756.865234,333.157532 769.076660,341.427948 780.426270,350.855560 
	C788.959412,357.943756 796.909363,365.500031 804.033325,374.145264 
	C812.808594,384.794495 821.261841,395.581390 828.412476,407.376862 
	C828.926392,408.224457 829.390259,409.116882 829.745728,410.039246 
	C829.897095,410.432159 829.709229,410.955841 829.147827,411.800842 
	C816.609314,393.607971 804.259033,375.305573 786.643372,360.597168 
	C788.681702,366.350677 793.385742,369.342255 796.642578,373.292847 
	C811.852844,391.742859 821.996887,412.793915 830.663452,434.841919 
	C834.772278,445.295074 840.288452,455.201050 845.285400,465.296356 
	C847.638184,470.049622 849.428101,475.064911 852.476074,479.509155 
	C854.328125,482.209534 856.454712,483.835449 860.768005,484.136505 
	C849.892395,460.405579 837.670044,437.828217 829.334290,412.419312 
	C834.235962,415.273010 834.475220,419.699493 835.750854,423.102692 
	C843.341675,443.353912 854.268860,462.058838 862.575073,481.960999 
	C865.362061,488.638855 872.069031,489.908539 877.533997,492.562531 
	C892.799194,499.975861 907.027344,508.906647 920.426331,519.300781 
	C928.704651,525.722534 936.725830,532.278503 943.105591,540.721680 
	C945.028015,543.265991 946.712952,545.691284 945.808228,548.769287 
	C944.889526,551.894836 941.550720,551.462280 939.114014,552.227844 
	C927.568665,555.855225 915.278442,555.776306 903.711426,559.309692 
	C903.102661,559.495728 902.505188,559.718872 901.611572,560.024109 
	C902.640259,563.336853 905.367859,564.815613 907.777344,566.189331 
	C920.399841,573.385986 932.112976,581.832336 941.838074,592.602661 
	C947.078430,598.406311 953.218567,603.712646 956.096741,611.426758 
	C956.696716,613.034546 957.673340,614.245544 956.094910,615.875244 
	C954.362488,617.663940 952.769409,616.853699 951.142944,615.984680 
	C946.544739,613.527771 943.052368,609.644531 939.058105,606.415588 
	C929.495117,598.685181 917.717834,594.998718 907.371887,588.768799 
	C890.680542,578.717957 876.041687,566.450378 867.039734,548.532349 
	C865.089294,544.649902 866.038879,542.627014 869.771179,541.266418 
	C872.270508,540.355347 874.773071,539.453003 877.658325,538.431519 
M682.786682,508.685852 
	C683.838867,509.744354 685.152100,510.646698 685.895874,511.889740 
	C688.439575,516.141174 692.510620,516.269714 696.444214,515.450562 
	C700.044312,514.700745 703.018555,512.701599 704.175842,508.572205 
	C706.021606,501.985931 706.112000,495.123993 707.722168,488.530487 
	C708.276489,486.260590 707.819763,482.914093 710.864746,482.334717 
	C713.690430,481.796997 714.157959,485.057068 715.536011,486.748962 
	C716.369507,487.772247 717.103149,488.930481 717.636292,490.136566 
	C722.663147,501.509216 729.358154,511.655884 740.320251,520.553467 
	C734.376465,510.553406 728.801758,501.974701 724.052673,492.960938 
	C719.220642,483.789978 715.201782,474.190582 710.684387,464.472198 
	C706.516357,468.022003 704.262512,472.391418 702.427429,477.023529 
	C699.083862,485.463318 698.963806,494.546661 697.370239,503.328400 
	C696.224304,509.643555 694.930237,510.530609 689.482300,506.982727 
	C688.377014,506.262909 687.303223,505.432556 686.395813,504.480652 
	C677.634338,495.290009 674.819397,483.508514 673.936829,471.613922 
	C672.617615,453.835205 673.030396,436.024261 681.068237,419.349457 
	C683.582153,414.134247 683.167297,408.916870 678.894043,404.613770 
	C670.968445,396.632843 666.390503,386.797119 662.775940,376.373016 
	C659.678772,367.440704 657.550415,358.191559 653.663757,349.512207 
	C649.404968,340.001831 642.776611,332.111755 636.711304,323.817871 
	C633.201172,319.017975 629.443970,314.439758 628.307373,308.195953 
	C627.002136,301.025909 631.962891,295.415466 639.045288,297.027313 
	C650.514587,299.637604 661.314453,304.093140 670.399963,311.575897 
	C677.191284,317.169128 684.734924,319.834717 693.153198,319.565796 
	C709.198730,319.053192 722.257080,326.759277 735.441467,334.136444 
	C744.282349,339.083191 752.322571,345.309509 759.896240,351.981476 
	C765.335449,356.773102 771.477234,360.775208 776.101013,366.550995 
	C780.386230,371.903809 784.958496,376.998657 789.154785,382.463318 
	C797.525879,393.364441 805.735107,404.321503 810.678162,417.216187 
	C818.344849,437.215912 828.833984,455.923004 836.935669,475.715302 
	C840.878662,485.347870 846.403870,492.611542 857.808716,495.332947 
	C866.973450,497.519836 876.310059,500.664185 884.372192,506.300537 
	C893.452209,512.648560 902.682556,518.782043 911.862122,524.987183 
	C914.432739,526.724792 917.218994,528.046387 918.777771,531.117737 
	C919.460815,532.463684 920.639526,533.506897 919.932678,535.070618 
	C919.204041,536.682312 917.224182,536.944214 916.053467,536.748657 
	C912.852661,536.214111 909.810974,536.968079 906.699829,537.116089 
	C895.211304,537.662659 884.012207,539.423523 873.442261,544.287598 
	C871.038269,545.393860 870.213379,546.459045 871.231323,549.226257 
	C875.325684,560.356873 884.549011,566.565063 893.680969,572.714905 
	C904.793274,580.198425 918.292236,583.369751 928.708374,592.225159 
	C929.327820,591.056396 928.803650,590.569885 928.428833,590.064453 
	C920.875366,579.879761 910.773010,572.729797 900.143738,566.168579 
	C894.370361,562.604675 888.471680,559.131104 884.193420,553.662537 
	C882.130737,551.025879 881.557068,547.830627 885.486084,547.028625 
	C892.459412,545.605042 899.143677,542.996765 906.379456,542.542053 
	C913.766724,542.077881 921.100403,540.783447 928.199951,537.743042 
	C927.890076,536.923462 927.770264,536.259033 927.425293,535.746094 
	C921.616577,527.110413 913.681274,520.648315 905.555908,514.374451 
	C892.660217,504.417053 879.281128,495.226044 863.730835,489.881897 
	C853.324463,486.305511 846.615967,479.615204 844.027649,468.869171 
	C843.875366,468.237305 843.503662,467.641083 843.156433,467.075989 
	C835.927307,455.309662 830.761292,442.497925 825.212830,429.954346 
	C818.627808,415.067444 812.628845,400.081421 802.886108,386.759979 
	C790.294067,369.542664 776.127136,354.040741 759.201477,341.000031 
	C752.138367,335.558105 744.708679,330.732178 737.274719,325.862091 
	C724.216797,317.307648 709.893250,312.910309 694.348389,312.332703 
	C688.015686,312.097443 682.411072,310.140198 677.466492,306.028229 
	C668.913757,298.915741 658.898376,294.541595 648.303894,291.566772 
	C642.152466,289.839569 635.871460,289.154297 630.270935,293.583008 
	C618.918884,302.559753 623.171082,315.899323 630.758911,324.767120 
	C636.616272,331.612610 641.750671,338.875946 646.618347,346.424805 
	C652.326538,355.277344 653.232422,365.777863 657.194092,375.227386 
	C661.934570,386.534698 666.123169,398.019501 674.342590,407.515839 
	C676.134521,409.586243 679.443787,412.196167 678.030579,415.205719 
	C675.506714,420.580658 675.035645,426.397034 673.221802,431.881012 
	C670.016907,441.570648 668.377625,451.722534 668.630554,461.701630 
	C669.048767,478.200684 672.236572,494.328430 682.786682,508.685852 
M678.148743,399.335815 
	C686.434448,405.385651 687.095825,414.371979 684.756531,422.691956 
	C682.022705,432.415039 679.473328,442.160675 677.530884,452.034241 
	C674.119629,469.373993 677.595337,485.627899 686.584839,500.736816 
	C687.946228,503.024994 689.839905,504.880981 692.983093,505.114197 
	C694.381226,502.456848 692.768372,500.378418 691.978088,498.394470 
	C688.680176,490.115356 687.382935,481.428406 686.826721,472.662170 
	C685.932068,458.559509 688.494812,444.940918 693.744324,431.844269 
	C696.693787,424.485809 698.789124,417.299438 691.926758,410.804810 
	C682.405579,401.793701 678.460144,389.830170 674.545105,377.850677 
	C672.591248,371.872162 670.746521,365.849792 668.545898,359.961792 
	C663.706421,347.013458 654.756653,336.664673 646.429504,325.971344 
	C643.845459,322.653137 642.939697,318.801880 641.939453,315.047089 
	C640.937439,311.285583 643.479675,308.741394 647.393066,308.672150 
	C652.263306,308.585968 656.872192,309.239380 661.214233,311.922302 
	C664.340698,313.854187 667.985107,314.947784 671.398499,316.415314 
	C663.251648,309.007690 653.567688,304.587494 643.360168,301.062592 
	C640.159180,299.957245 637.265442,299.125946 634.910095,302.325165 
	C632.539368,305.545288 629.953369,308.654144 633.035278,313.038605 
	C634.446289,315.046112 635.402771,317.372070 637.064087,319.283539 
	C650.573547,334.826172 659.857056,352.460907 664.749207,372.601440 
	C667.057495,382.104126 671.810242,390.833618 678.148743,399.335815 
M929.387024,533.472229 
	C933.542297,538.671387 933.255432,539.239807 927.243164,541.584900 
	C919.074036,544.771240 910.192688,543.891296 901.937744,546.383728 
	C896.953003,547.888672 891.456177,547.681519 886.581604,550.659851 
	C888.652283,555.539246 892.623718,557.825378 897.168274,560.650696 
	C897.345276,557.773865 899.433228,558.102905 901.127502,557.511780 
	C912.470093,553.554810 924.518982,553.290833 936.128784,550.719116 
	C943.038940,549.188477 944.048157,547.269226 939.974915,541.545776 
	C939.016968,540.199707 938.228027,538.716614 937.160645,537.468262 
	C934.560791,534.427673 931.898376,531.413391 927.851501,529.925476 
	C927.448914,531.615723 928.298096,532.253479 929.387024,533.472229 
M701.193665,526.332092 
	C707.318542,528.311401 712.852722,526.546448 715.901917,521.641479 
	C722.447571,511.111664 720.538330,496.169678 711.317566,487.156006 
	C709.181458,492.905823 709.221741,498.914032 708.450439,504.724548 
	C707.272339,513.599121 703.369690,517.804626 694.652588,518.397583 
	C693.744751,518.459412 692.583374,518.178345 692.095459,519.577576 
	C693.713379,523.201965 697.558350,524.054260 701.193665,526.332092 
M771.266235,550.688721 
	C771.745422,550.798828 772.303040,551.817505 772.649414,550.609070 
	C772.705444,550.413635 772.328796,550.062378 772.108032,549.823914 
	C764.109985,541.182983 757.147339,531.785339 750.629944,521.965210 
	C742.626099,509.905426 735.660767,497.359314 730.035400,484.041046 
	C727.488953,478.012207 724.828369,472.031586 721.815491,465.099487 
	C719.371765,468.647156 716.547485,470.337219 718.768250,475.027985 
	C725.806030,489.893402 733.975769,504.035095 742.790466,517.917969 
	C750.598267,530.215088 761.171143,539.869934 771.266235,550.688721 
M682.759888,321.376434 
	C682.181824,321.498322 680.985901,321.766144 681.533447,322.266235 
	C685.134277,325.555237 688.228943,329.530975 693.897644,329.746979 
	C700.332703,329.992188 706.746887,330.825775 713.165466,331.451965 
	C721.815552,332.295807 729.189087,336.878815 737.154480,339.728088 
	C721.376953,327.388397 703.560791,321.012909 682.759888,321.376434 
M868.030151,506.380371 
	C874.057495,507.709320 879.488831,511.271057 885.889038,511.361633 
	C876.099243,504.041840 864.944702,500.294098 853.250916,497.810303 
	C856.461426,503.208862 862.130798,504.215118 868.030151,506.380371 
M943.190491,605.974915 
	C946.328674,607.762146 948.182251,611.510742 952.839722,611.472595 
	C946.174805,601.601440 938.483826,592.678223 929.458130,584.865906 
	C931.853027,588.105835 933.391052,591.992859 936.709839,594.498779 
	C940.348389,597.246094 942.298279,600.940247 943.190491,605.974915 
M917.917175,588.553101 
	C911.811218,585.584656 905.705200,582.616150 899.599243,579.647705 
	C907.108521,586.675476 916.067505,590.872070 925.838989,593.630188 
	C923.412537,592.054138 920.986084,590.478088 917.917175,588.553101 
z"/>
<path fill="#000000" opacity="1.000000" stroke="none" 
	d="
M106.323807,639.000000 
	C106.313103,657.332886 106.116554,675.168762 106.405960,692.996765 
	C106.490257,698.189514 104.751579,699.589050 99.810013,699.421936 
	C95.832787,699.287354 91.848831,699.142822 87.645142,700.475037 
	C85.646111,701.108398 80.937126,699.724976 77.466316,698.986023 
	C76.113747,697.192627 76.722206,695.121460 76.719666,693.202148 
	C76.674622,659.203003 76.793289,625.203247 76.641159,591.204712 
	C76.543495,569.379700 83.982811,566.008484 102.917351,563.002075 
	C111.642715,561.616638 119.947578,563.199646 127.352112,569.027527 
	C131.137970,572.007202 136.563309,572.415833 140.287292,576.128723 
	C148.003418,583.821716 150.753220,594.124695 155.078659,603.555420 
	C161.435989,617.416321 167.267822,631.518494 173.295441,645.530029 
	C175.327621,650.253967 177.380020,654.974792 179.195877,659.782898 
	C179.740784,661.225708 180.181839,662.556946 181.635391,663.707886 
	C185.877426,656.602966 188.468948,648.898499 191.870193,641.588867 
	C198.038055,628.333557 203.859299,614.916870 209.814346,601.562683 
	C212.990738,594.439575 216.356598,587.391724 219.264465,580.160156 
	C225.526779,564.586182 239.602905,561.330017 253.681335,563.096436 
	C263.468079,564.324463 271.553894,569.746887 280.092560,573.926086 
	C288.011780,577.802185 290.409149,585.121460 290.398407,593.507690 
	C290.363007,621.173645 290.386810,648.839539 290.378876,676.505493 
	C290.376190,685.838501 290.267242,695.172424 290.366821,704.504150 
	C290.408783,708.439697 289.030457,710.328186 284.820801,710.219971 
	C277.159912,710.023010 269.489899,710.099060 261.824890,710.177307 
	C257.499573,710.221436 255.179428,708.559753 255.631744,703.925964 
	C255.878922,701.393799 255.604843,699.156311 252.132019,699.316223 
	C247.979874,699.507446 246.755112,697.251831 246.774536,693.365173 
	C246.871948,673.867249 246.803223,654.368408 246.793106,634.869934 
	C246.792252,633.234375 246.792969,631.598816 246.792969,628.876770 
	C243.055618,634.432922 241.440659,639.809204 239.140823,644.827271 
	C231.526215,661.441895 223.530121,677.911804 216.702698,694.849304 
	C208.548294,715.078796 179.626816,716.360352 167.518539,705.492737 
	C160.451965,699.150330 153.256332,692.285461 149.293137,682.838013 
	C141.128784,663.375854 132.320053,644.183777 123.741966,624.895935 
	C123.040428,623.318481 122.075226,621.858276 120.355316,620.561646 
	C120.355316,622.502441 120.355652,624.443176 120.355270,626.383972 
	C120.350395,651.216736 120.357376,676.049500 120.334251,700.882263 
	C120.325668,710.090942 120.293427,710.098389 111.311691,710.116821 
	C104.645561,710.130493 97.979385,710.125916 91.313225,710.120056 
	C89.352989,710.118347 87.197922,710.484924 86.404091,707.641724 
	C95.279510,707.641724 104.028442,707.493530 112.768280,707.710754 
	C116.542374,707.804565 117.726540,706.351746 117.715767,702.752747 
	C117.627518,673.253723 117.613510,643.754211 117.685608,614.255127 
	C117.694283,610.705261 116.033806,607.888367 114.679268,604.879333 
	C112.317474,599.632690 109.955963,594.385925 107.594322,589.139160 
	C107.170616,589.207458 106.746902,589.275757 106.323196,589.343994 
	C106.323196,605.729370 106.323196,622.114685 106.323807,639.000000 
M206.953644,618.316101 
	C204.967560,622.674255 202.950989,627.018799 201.000931,631.393066 
	C194.382462,646.239075 187.843369,661.120789 181.146606,675.931335 
	C179.346817,679.911682 175.646149,680.027039 173.188599,676.305908 
	C172.190155,674.794067 171.514786,673.054077 170.798874,671.372681 
	C164.497192,656.572144 158.274399,641.737671 151.919510,626.960083 
	C145.383499,611.761292 138.714798,596.619629 132.125732,581.443542 
	C129.028625,574.310242 124.627380,568.128479 116.549797,566.829712 
	C106.210243,565.167175 96.052711,566.166321 86.877945,572.136902 
	C83.655983,574.233582 82.036736,577.401428 81.544006,580.747925 
	C80.800659,585.796448 80.186211,590.887695 80.228416,596.076782 
	C80.416840,619.237305 80.313835,642.400269 80.316139,665.562317 
	C80.317024,674.393921 80.434433,683.227722 80.261162,692.055908 
	C80.192749,695.541748 81.435982,696.860901 84.906700,696.679199 
	C88.728111,696.479126 92.569252,696.669739 96.401756,696.664429 
	C103.650581,696.654480 103.668900,696.646851 103.669975,689.620667 
	C103.675034,656.460693 103.655090,623.300659 103.699966,590.140747 
	C103.702858,588.001953 103.002892,585.519226 105.606155,583.575500 
	C107.129005,585.722839 109.738449,586.363098 110.812950,588.702820 
	C115.367340,598.619629 119.958176,608.520447 124.420204,618.478821 
	C134.591599,641.179626 144.642120,663.934692 154.868958,686.610291 
	C157.028809,691.399231 160.457870,694.935303 165.792389,696.675659 
	C170.262619,698.134033 174.700882,697.417419 179.152054,697.674377 
	C188.948792,698.240112 195.680161,693.648987 199.801239,685.053345 
	C203.682526,676.957764 207.365906,668.765808 211.049255,660.577148 
	C219.011230,642.876465 226.924240,625.153809 234.842865,607.433716 
	C237.890411,600.613892 240.830521,593.745117 243.967056,586.966858 
	C244.898102,584.954773 246.233017,582.093628 248.891953,584.983215 
	C250.227966,586.435059 251.005692,588.864807 251.110107,590.899841 
	C251.440720,597.341858 251.393906,603.806274 251.387650,610.261963 
	C251.361023,637.712402 251.320206,665.163025 251.211823,692.613220 
	C251.199921,695.624084 252.334045,696.765442 255.354492,696.644836 
	C259.679596,696.472351 264.042999,696.330444 268.343323,696.707947 
	C273.487244,697.159424 274.827454,695.127380 274.798035,690.140991 
	C274.600494,656.648926 274.690277,623.155090 274.696960,589.661865 
	C274.699921,574.750732 270.773621,569.872498 256.196930,566.740845 
	C241.915283,563.672668 228.612946,569.337280 223.226822,581.186707 
	C217.740204,593.257202 212.623978,605.496094 206.953644,618.316101 
M179.799698,708.667786 
	C190.336166,710.498779 200.330322,709.985352 208.653183,702.082458 
	C213.653503,697.334473 215.556274,690.761902 218.351120,684.841125 
	C225.920013,668.806396 232.647552,652.376099 240.115967,636.291809 
	C246.401031,622.755920 248.923401,605.879700 246.012436,591.270203 
	C238.104538,606.383423 232.043472,622.213318 225.011505,637.600952 
	C217.840759,653.292236 210.671356,668.982361 203.935028,684.873657 
	C201.710129,690.122192 198.762283,695.552490 192.935211,697.909363 
	C186.130386,700.661560 179.102722,702.409668 171.641571,700.576965 
	C170.142715,700.208862 168.382568,699.679138 166.695297,701.631409 
	C170.395279,704.798401 174.002151,707.808655 179.799698,708.667786 
M277.357239,685.491821 
	C277.305298,699.069031 277.305298,699.069092 263.968903,699.317261 
	C263.635742,699.323486 263.301636,699.343262 262.969482,699.326538 
	C260.068939,699.180603 258.193970,699.971436 258.165344,703.441101 
	C258.137238,706.846191 259.819092,707.720520 262.820953,707.683044 
	C269.648651,707.597595 276.480988,707.536865 283.305756,707.701355 
	C286.919617,707.788513 287.883148,706.066284 287.872955,702.822388 
	C287.755524,665.508484 287.653931,628.194458 287.662292,590.880432 
	C287.664124,582.710632 282.955383,578.329041 277.358582,575.465820 
	C277.358582,611.693970 277.358582,648.094543 277.357239,685.491821 
M178.174805,664.103333 
	C176.582474,660.284973 175.030518,656.449097 173.391144,652.651062 
	C163.810760,630.455566 154.315994,608.222046 144.534668,586.115295 
	C142.335693,581.145447 138.491867,577.307312 132.678085,574.989075 
	C147.248077,608.728699 161.565414,641.883301 176.360962,676.145264 
	C178.247482,671.624023 180.820618,668.667847 178.174805,664.103333 
z"/>
<path fill="#000000" opacity="1.000000" stroke="none" 
	d="
M343.274414,650.998901 
	C343.241241,659.158386 343.280243,666.821228 343.076569,674.477539 
	C342.975067,678.292847 344.343964,679.782043 348.315887,679.747070 
	C366.305725,679.588562 384.298676,679.573486 402.288239,679.745850 
	C406.477325,679.785950 407.757935,678.315369 407.728302,674.224792 
	C407.577484,653.401794 407.795807,632.575500 407.558624,611.754089 
	C407.503326,606.898132 409.028900,605.303040 413.815125,605.570496 
	C420.126007,605.923096 426.471497,605.633545 432.801788,605.674561 
	C434.592743,605.686096 436.883545,605.392639 437.140503,607.909424 
	C437.500916,611.439392 439.514374,611.586975 442.369751,611.421753 
	C450.224762,610.967468 450.347565,611.173950 450.347351,619.233826 
	C450.346466,652.716553 450.297333,686.199280 450.360779,719.681885 
	C450.375305,727.350220 446.620667,733.381226 441.219849,737.787781 
	C430.564850,746.481079 417.746399,750.136047 404.107727,750.228027 
	C374.962402,750.424622 345.815033,750.318176 316.668488,750.317871 
	C309.864929,750.317810 309.307159,749.922058 308.700500,743.126648 
	C308.452026,740.343628 307.306274,739.155823 304.657745,739.360107 
	C301.442444,739.608093 300.865845,737.750610 300.682770,735.055176 
	C299.643005,719.748535 299.602081,719.734863 314.581360,719.720642 
	C337.233215,719.699219 359.885956,719.811523 382.536377,719.627991 
	C388.959259,719.575989 395.458710,719.289368 401.514648,716.498230 
	C404.418945,715.159607 406.256653,713.156433 407.258270,709.311462 
	C398.277344,709.311462 389.856995,709.456055 381.443451,709.278503 
	C368.016815,708.994995 354.516357,710.431274 341.192902,707.541687 
	C328.497253,704.788269 318.332336,698.887451 309.427887,688.723389 
	C301.869049,680.095337 299.175598,671.425598 299.615295,660.706116 
	C300.133240,648.078674 300.324524,635.437500 300.611267,622.801208 
	C300.697937,618.980408 300.669342,615.190613 299.830963,611.383850 
	C299.029297,607.743835 300.108185,605.400940 304.690857,605.614624 
	C311.339691,605.924500 318.013367,605.688965 324.676270,605.721375 
	C325.989777,605.727722 328.270996,605.470825 328.392365,606.432129 
	C329.315826,613.747498 335.071838,611.006897 339.082855,611.880371 
	C339.371857,611.943298 339.608093,612.248657 340.077972,612.595825 
	C338.538391,615.183289 335.965332,614.147339 333.953888,614.143921 
	C330.479401,614.138000 329.306671,615.554565 329.329193,618.962158 
	C329.437164,635.287231 329.295929,651.614075 329.406555,667.939087 
	C329.451660,674.599182 332.688049,677.756653 340.635712,678.452820 
	C340.635712,657.193359 340.635712,636.001404 340.635712,614.809387 
	C341.505951,614.807983 342.376190,614.806519 343.246429,614.805115 
	C343.246429,626.703247 343.246429,638.601379 343.274414,650.998901 
M378.499939,695.643127 
	C385.163269,695.647705 391.834229,695.858948 398.488403,695.614502 
	C412.929993,695.084167 411.381561,698.183838 411.322205,709.306458 
	C411.293854,714.616516 408.408386,718.239624 403.708618,719.952393 
	C399.547241,721.468994 395.220367,722.475891 390.584015,722.446472 
	C363.931366,722.277039 337.277039,722.367676 310.623260,722.383179 
	C304.350800,722.386841 304.350800,722.409973 304.352417,729.381348 
	C304.354095,736.603882 304.354095,736.614746 310.878906,736.616760 
	C337.033600,736.624817 363.188324,736.658630 389.342926,736.609863 
	C397.697327,736.594299 405.910797,735.281677 413.765778,732.467773 
	C425.053986,728.423889 434.258789,721.619019 434.459290,708.621277 
	C434.955109,676.477173 434.592316,644.320129 434.653229,612.168457 
	C434.659088,609.079712 433.300690,608.009277 430.441406,608.054016 
	C426.277710,608.119202 422.112213,608.058044 417.947693,608.084229 
	C411.472198,608.124817 411.356384,608.239258 411.354431,614.927917 
	C411.348389,635.751709 411.256042,656.576355 411.437714,677.398621 
	C411.477661,681.975769 409.955139,683.487000 405.367645,683.444275 
	C385.212128,683.256653 365.053284,683.454468 344.896515,683.348389 
	C333.332306,683.287537 326.867920,676.776428 326.841309,665.482910 
	C326.801270,648.495422 326.734009,631.507141 326.874176,614.520813 
	C326.905670,610.703125 325.830994,609.007385 321.769104,609.277832 
	C317.457001,609.565002 313.098785,609.539917 308.782898,609.281006 
	C304.677216,609.034729 303.235504,610.508789 303.278168,614.709900 
	C303.455780,632.194336 303.519775,649.684509 303.259247,667.167114 
	C303.094940,678.190430 308.426147,685.145508 318.007446,689.575500 
	C327.539185,693.982544 337.767731,695.093506 348.017792,695.556580 
	C357.826447,695.999634 367.671082,695.645996 378.499939,695.643127 
M408.052765,747.590454 
	C414.758484,746.502991 421.440247,745.426697 427.794800,742.777161 
	C437.741364,738.629944 445.485809,732.566101 447.759125,721.342163 
	C449.326447,713.603821 448.569794,705.772461 448.592010,697.981445 
	C448.667114,671.649109 448.590973,645.316284 448.688812,618.984131 
	C448.702118,615.403748 447.984741,613.308777 443.799469,613.326904 
	C437.978607,613.352051 437.420593,613.687317 437.413239,619.908264 
	C437.377777,649.907227 437.472351,679.906921 437.270447,709.904724 
	C437.210052,718.873352 432.733978,725.852722 425.140137,730.447266 
	C414.671661,736.781006 403.170410,739.423584 390.917725,739.355713 
	C366.419159,739.219910 341.919373,739.326721 317.420074,739.303589 
	C314.268585,739.300659 311.360077,739.135925 311.311890,743.711792 
	C311.263245,748.330933 314.367554,747.646423 317.131073,747.646790 
	C347.130035,747.650696 377.128998,747.630798 408.052765,747.590454 
M348.532898,698.357849 
	C338.316742,698.754944 328.478485,696.485962 318.668732,693.828857 
	C325.323669,699.391357 332.606750,703.062683 341.095001,704.842651 
	C350.821716,706.882385 360.561279,706.531982 370.325684,706.644104 
	C381.134674,706.768188 391.945618,706.706482 402.755524,706.765930 
	C405.742584,706.782410 407.862579,706.339905 407.755432,702.431274 
	C407.647369,698.489258 405.399292,698.320312 402.472137,698.327759 
	C384.822845,698.372925 367.173401,698.353577 348.532898,698.357849 
z"/>
<path fill="#000000" opacity="1.000000" stroke="none" 
	d="
M764.685181,621.000000 
	C764.686768,604.010254 764.798340,587.519348 764.613037,571.031677 
	C764.566528,566.890869 765.915039,565.455872 770.048889,565.633728 
	C776.532898,565.912659 783.037659,565.693054 789.533508,565.723328 
	C791.162415,565.730896 793.452454,565.386963 793.756104,567.427124 
	C794.545410,572.729797 798.421692,571.844177 801.723938,571.600159 
	C806.092285,571.277405 807.464294,572.847290 807.441589,577.274231 
	C807.287720,607.249207 807.390564,637.225464 807.408447,667.201355 
	C807.415222,678.534790 807.412415,678.635742 818.418457,678.682129 
	C841.402405,678.779053 864.386719,678.749451 887.370850,678.802979 
	C889.150635,678.807068 891.040894,678.272278 892.906311,679.690186 
	C891.832336,684.677185 893.733521,689.676575 893.404846,694.829224 
	C893.210999,697.869141 892.475342,699.359802 889.105164,699.350952 
	C863.954407,699.285156 838.797913,699.643921 813.655701,699.183960 
	C806.313843,699.049561 798.754028,698.391541 791.595642,695.930786 
	C790.073181,695.407471 788.385620,695.364563 786.565430,695.627563 
	C791.244568,700.775269 797.504456,702.853088 803.905762,704.574463 
	C823.019775,709.714294 842.567627,707.199646 861.937195,707.672241 
	C873.920227,707.964600 885.918396,707.590271 897.905945,707.769592 
	C902.175171,707.833496 904.084900,706.466064 903.666199,702.009827 
	C903.387085,699.039246 903.440491,696.001953 903.697327,693.024902 
	C904.063049,688.784363 902.553589,686.680725 898.100220,687.122437 
	C897.195557,687.212158 896.119751,687.525757 895.433228,686.474121 
	C902.744202,683.083557 906.029846,684.905029 906.181274,692.470337 
	C906.264526,696.632385 906.181824,700.798218 906.296265,704.958984 
	C906.391724,708.433289 905.054504,710.215759 901.352417,710.213745 
	C875.872375,710.199829 850.385254,710.630005 824.915222,710.144531 
	C812.303345,709.904175 799.014099,708.887573 788.665894,701.125122 
	C776.001892,691.625427 763.771667,681.083252 764.579529,662.470459 
	C765.171265,648.837769 764.688904,635.158508 764.685181,621.000000 
M791.117554,621.500000 
	C791.058960,605.852417 790.863098,590.203491 791.026062,574.558167 
	C791.074341,569.918579 789.838867,567.715576 784.854797,568.238831 
	C781.560364,568.584656 778.176331,568.597351 774.879639,568.275696 
	C770.160339,567.815186 769.035583,569.837830 768.911560,574.291931 
	C768.077637,604.249023 768.508057,634.210083 768.239990,664.167236 
	C768.187317,670.056946 769.679443,675.351624 772.123840,680.424622 
	C774.121155,684.569702 777.053528,688.008667 782.450439,687.573975 
	C783.884277,687.458496 785.062439,688.067810 785.937317,689.173889 
	C789.115112,693.191589 793.567749,690.676392 797.280945,691.919312 
	C794.753723,689.389832 789.332581,688.325745 792.425903,683.643005 
	C795.185974,679.465027 795.093262,676.016907 792.898254,672.156860 
	C791.588379,669.853210 791.419983,667.381958 791.393677,664.916809 
	C791.243286,650.778442 791.199219,636.638977 791.117554,621.500000 
M794.329224,634.499939 
	C794.326843,644.493042 794.243591,654.487061 794.348206,664.479065 
	C794.428955,672.195862 797.580017,675.965820 804.992188,677.357422 
	C805.214111,676.280884 805.636780,675.185425 805.637146,674.089783 
	C805.648499,642.611633 805.610962,611.133484 805.601318,579.655334 
	C805.600037,575.558105 804.410706,573.237671 799.532410,573.252197 
	C794.622864,573.266907 794.257385,575.741028 794.278687,579.537292 
	C794.379517,597.524353 794.327576,615.512268 794.329224,634.499939 
M824.771057,685.461060 
	C826.513916,686.598755 828.533691,686.620422 830.492798,686.992371 
	C835.644470,687.970520 840.790833,686.696350 845.908020,687.121094 
	C849.628235,687.429932 853.644470,687.243042 857.506226,690.658447 
	C843.857605,695.264404 829.900269,689.612793 817.226196,695.971558 
	C839.612549,695.971558 861.750122,695.981445 883.887756,695.950867 
	C885.495605,695.948608 887.652039,696.389343 888.351624,694.552063 
	C889.559814,691.379150 889.396179,687.830139 888.349060,684.763367 
	C887.539307,682.391602 884.466248,682.566223 882.214783,682.576477 
	C874.913269,682.609558 867.613098,682.867859 860.311523,682.987488 
	C849.047668,683.171997 837.796753,681.955139 826.519409,682.703308 
	C824.740479,682.821350 823.354126,682.542908 824.771057,685.461060 
z"/>
<path fill="#000000" opacity="1.000000" stroke="none" 
	d="
M952.971375,667.925781 
	C964.896240,678.983521 963.404724,693.233459 957.666565,701.935425 
	C949.786804,713.885315 927.761536,714.620850 919.388489,703.076233 
	C916.834656,699.554932 913.605103,696.767212 910.727112,693.614502 
	C903.540405,685.741699 904.067139,672.792664 911.424011,663.815552 
	C916.840088,657.206726 929.772217,655.298950 938.046326,660.393982 
	C942.738220,663.283264 947.891968,665.084167 952.971375,667.925781 
M943.505554,708.415222 
	C950.977661,705.541321 956.536072,701.080566 959.009277,692.881287 
	C961.716614,683.905762 956.564819,672.183777 947.103882,668.608337 
	C951.240906,688.974121 944.612488,701.297791 922.124146,700.872314 
	C922.514099,702.021667 922.548462,702.376282 922.730164,702.621765 
	C927.889221,709.592468 935.338989,708.908142 943.505554,708.415222 
M922.809631,690.021423 
	C918.679138,692.203613 916.854675,690.387024 916.759338,686.287537 
	C916.621155,680.343018 916.723999,674.392944 916.723999,668.020325 
	C912.941711,669.685913 911.995789,672.448547 911.541382,675.188599 
	C910.694763,680.293518 912.346680,685.335632 912.488464,690.448792 
	C912.554260,692.816284 914.553711,694.326233 917.211182,693.253357 
	C919.528137,692.317810 921.646362,692.558228 923.986816,693.254089 
	C926.363647,693.960693 928.820068,693.834473 931.306885,692.899353 
	C934.052856,691.866760 934.635376,690.589539 933.067078,688.084229 
	C931.216370,685.127686 929.381531,682.145935 928.134033,677.784424 
	C926.709656,683.149597 932.451233,685.660461 930.967468,690.349792 
	C927.640015,688.559875 927.581421,684.478882 924.730286,682.520630 
	C922.466125,684.586121 923.738708,687.144653 922.809631,690.021423 
M933.684204,665.495117 
	C933.734070,669.772522 930.931946,670.577209 927.460938,670.713928 
	C925.763672,670.780884 924.177612,671.352478 923.419250,673.065002 
	C923.067810,673.858826 923.187256,674.767761 924.048035,675.238403 
	C925.719727,676.152344 927.244080,675.152527 928.827698,674.779419 
	C930.217834,674.451904 930.395264,673.272644 930.949707,672.271179 
	C932.005310,670.364441 933.726379,669.168518 935.856262,670.043274 
	C937.941101,670.899719 937.488159,673.028015 937.401733,674.855286 
	C937.237610,678.327698 934.537048,679.849426 932.082031,681.549988 
	C933.025024,684.481934 934.886841,686.413147 937.134644,688.280457 
	C943.064880,681.759766 940.139221,674.686035 938.495972,667.999634 
	C940.691589,667.531433 940.885315,669.668518 942.397278,669.552124 
	C941.068787,664.928223 937.836975,664.702148 933.684204,665.495117 
z"/>
<path fill="#000000" opacity="1.000000" stroke="none" 
	d="
M692.306519,354.729431 
	C690.198486,352.142639 688.224121,349.909576 686.396790,347.561981 
	C684.128784,344.648163 684.960022,342.727631 688.492126,341.929810 
	C689.289978,341.749634 690.346863,341.429932 690.929016,341.774658 
	C699.248413,346.701416 710.301331,347.529327 715.078796,357.791748 
	C717.542664,363.084229 714.921204,371.273468 709.823792,373.782196 
	C707.750671,374.802460 705.908875,374.274719 704.793213,372.144287 
	C703.717590,370.090271 702.772278,367.968384 701.746765,365.887634 
	C700.890381,364.150208 700.301758,362.648071 697.670898,362.311981 
	C693.910645,361.831573 694.270386,357.478851 692.306519,354.729431 
M708.255615,353.269989 
	C706.713379,352.165344 705.569580,350.226807 702.956787,350.824982 
	C700.246399,358.439972 704.718933,364.510590 706.753723,370.990387 
	C709.384583,371.083038 710.620361,369.913727 711.675293,368.278076 
	C714.835449,363.378632 714.044495,359.427216 708.255615,353.269989 
M691.192078,347.931030 
	C693.441345,351.020142 695.690613,354.109253 698.091736,357.406860 
	C700.387817,352.506042 697.676147,346.486145 693.216370,345.597717 
	C691.910339,345.337524 690.864868,345.651917 691.192078,347.931030 
z"/>
</svg>